<mxfile host="app.diagrams.net" modified="2024-05-01T13:32:53.311Z" agent="Mozilla/5.0 (Windows NT 10.0; Win64; x64) AppleWebKit/537.36 (KHTML, like Gecko) Chrome/122.0.0.0 YaBrowser/24.4.0.0 Safari/537.36" etag="WrjXjX6sd0jxtFtjh8wr" version="24.3.1" type="github">
  <diagram name="Страница — 1" id="zDt0bEEcHLc5_rWIZSba">
    <mxGraphModel dx="910" dy="500" grid="0" gridSize="10" guides="1" tooltips="1" connect="1" arrows="1" fold="1" page="1" pageScale="1" pageWidth="827" pageHeight="1169" math="0" shadow="0">
      <root>
        <mxCell id="0" />
        <mxCell id="1" parent="0" />
        <mxCell id="jtOHECNouudqZL3A1PdU-1" value="Сервер приложения" style="swimlane;fontStyle=1;align=center;verticalAlign=top;childLayout=stackLayout;horizontal=1;startSize=26;horizontalStack=0;resizeParent=1;resizeParentMax=0;resizeLast=0;collapsible=1;marginBottom=0;whiteSpace=wrap;html=1;" vertex="1" parent="1">
          <mxGeometry x="332" y="216" width="160" height="34" as="geometry" />
        </mxCell>
        <mxCell id="jtOHECNouudqZL3A1PdU-3" value="" style="line;strokeWidth=1;fillColor=none;align=left;verticalAlign=middle;spacingTop=-1;spacingLeft=3;spacingRight=3;rotatable=0;labelPosition=right;points=[];portConstraint=eastwest;strokeColor=inherit;" vertex="1" parent="jtOHECNouudqZL3A1PdU-1">
          <mxGeometry y="26" width="160" height="8" as="geometry" />
        </mxCell>
        <mxCell id="jtOHECNouudqZL3A1PdU-5" value="Корпус сервера приложений" style="swimlane;fontStyle=1;align=center;verticalAlign=top;childLayout=stackLayout;horizontal=1;startSize=26;horizontalStack=0;resizeParent=1;resizeParentMax=0;resizeLast=0;collapsible=1;marginBottom=0;whiteSpace=wrap;html=1;" vertex="1" parent="1">
          <mxGeometry x="94" y="285" width="204" height="139" as="geometry" />
        </mxCell>
        <mxCell id="jtOHECNouudqZL3A1PdU-6" value="+ Материал: пластик" style="text;strokeColor=none;fillColor=none;align=left;verticalAlign=top;spacingLeft=4;spacingRight=4;overflow=hidden;rotatable=0;points=[[0,0.5],[1,0.5]];portConstraint=eastwest;whiteSpace=wrap;html=1;" vertex="1" parent="jtOHECNouudqZL3A1PdU-5">
          <mxGeometry y="26" width="204" height="26" as="geometry" />
        </mxCell>
        <mxCell id="jtOHECNouudqZL3A1PdU-7" value="" style="line;strokeWidth=1;fillColor=none;align=left;verticalAlign=middle;spacingTop=-1;spacingLeft=3;spacingRight=3;rotatable=0;labelPosition=right;points=[];portConstraint=eastwest;strokeColor=inherit;" vertex="1" parent="jtOHECNouudqZL3A1PdU-5">
          <mxGeometry y="52" width="204" height="8" as="geometry" />
        </mxCell>
        <mxCell id="jtOHECNouudqZL3A1PdU-8" value="+ Защита компонентов устройства()&lt;div&gt;+ Содержание компонентов в своем объеме()&lt;/div&gt;" style="text;strokeColor=none;fillColor=none;align=left;verticalAlign=top;spacingLeft=4;spacingRight=4;overflow=hidden;rotatable=0;points=[[0,0.5],[1,0.5]];portConstraint=eastwest;whiteSpace=wrap;html=1;" vertex="1" parent="jtOHECNouudqZL3A1PdU-5">
          <mxGeometry y="60" width="204" height="79" as="geometry" />
        </mxCell>
      </root>
    </mxGraphModel>
  </diagram>
</mxfile>
